<?xml version="1.0" encoding="UTF-8" standalone="no"?>
<!DOCTYPE svg PUBLIC "-//W3C//DTD SVG 1.1//EN"
 "http://www.w3.org/Graphics/SVG/1.1/DTD/svg11.dtd">
<!-- Generated by graphviz version 2.43.0 (0)
 -->
<!-- Title: MBTI_Compatibility Pages: 1 -->
<svg width="617pt" height="2514pt"
 viewBox="0.00 0.00 617.00 2514.00" xmlns="http://www.w3.org/2000/svg" xmlns:xlink="http://www.w3.org/1999/xlink">
<g id="graph0" class="graph" transform="scale(1 1) rotate(0) translate(4 2510)">
<title>MBTI_Compatibility</title>
<polygon fill="white" stroke="transparent" points="-4,4 -4,-2510 613,-2510 613,4 -4,4"/>
<!-- ENTJ -->
<g id="node1" class="node">
<title>ENTJ</title>
<path fill="#2c3e50" stroke="black" d="M597,-1520C597,-1520 513,-1520 513,-1520 507,-1520 501,-1514 501,-1508 501,-1508 501,-1488 501,-1488 501,-1482 507,-1476 513,-1476 513,-1476 597,-1476 597,-1476 603,-1476 609,-1482 609,-1488 609,-1488 609,-1508 609,-1508 609,-1514 603,-1520 597,-1520"/>
<text text-anchor="middle" x="555" y="-1507.2" font-family="Arial" font-size="11.00" fill="white">ENTJ</text>
<text text-anchor="middle" x="555" y="-1495.2" font-family="Arial" font-size="11.00" fill="white">&#39;The Commander&#39;</text>
<text text-anchor="middle" x="555" y="-1483.2" font-family="Arial" font-size="11.00" fill="white">(Te&#45;Ni&#45;Se&#45;Fi)</text>
</g>
<!-- INTP -->
<g id="node2" class="node">
<title>INTP</title>
<path fill="#ecf0f1" stroke="#bdc3c7" d="M356.5,-1618C356.5,-1618 300.5,-1618 300.5,-1618 294.5,-1618 288.5,-1612 288.5,-1606 288.5,-1606 288.5,-1586 288.5,-1586 288.5,-1580 294.5,-1574 300.5,-1574 300.5,-1574 356.5,-1574 356.5,-1574 362.5,-1574 368.5,-1580 368.5,-1586 368.5,-1586 368.5,-1606 368.5,-1606 368.5,-1612 362.5,-1618 356.5,-1618"/>
<text text-anchor="middle" x="328.5" y="-1605.2" font-family="Arial" font-size="11.00" fill="#2c3e50">INTP</text>
<text text-anchor="middle" x="328.5" y="-1593.2" font-family="Arial" font-size="11.00" fill="#2c3e50">&#39;The Thinker&#39;</text>
<text text-anchor="middle" x="328.5" y="-1581.2" font-family="Arial" font-size="11.00" fill="#2c3e50">(Ti&#45;Ne&#45;Si&#45;Fe)</text>
</g>
<!-- INTP&#45;&gt;ENTJ -->
<g id="edge15" class="edge">
<title>INTP&#45;&gt;ENTJ</title>
<path fill="none" stroke="#2980b9" stroke-width="1.5" d="M368.62,-1587.34C400.43,-1579.47 445.94,-1566.28 483,-1548 495.28,-1541.94 507.79,-1533.89 518.81,-1526.01"/>
<polygon fill="#2980b9" stroke="#2980b9" stroke-width="1.5" points="520.93,-1528.8 526.93,-1520.07 516.79,-1523.16 520.93,-1528.8"/>
<text text-anchor="middle" x="436" y="-1593.8" font-family="Arial" font-size="9.00" fill="#2980b9">Ultimate Intellect</text>
<text text-anchor="middle" x="436" y="-1583.8" font-family="Arial" font-size="9.00" fill="#2980b9">(Allows ENTJ Lead)</text>
</g>
<!-- INFP -->
<g id="node3" class="node">
<title>INFP</title>
<path fill="#ecf0f1" stroke="#bdc3c7" d="M359,-1556C359,-1556 298,-1556 298,-1556 292,-1556 286,-1550 286,-1544 286,-1544 286,-1524 286,-1524 286,-1518 292,-1512 298,-1512 298,-1512 359,-1512 359,-1512 365,-1512 371,-1518 371,-1524 371,-1524 371,-1544 371,-1544 371,-1550 365,-1556 359,-1556"/>
<text text-anchor="middle" x="328.5" y="-1543.2" font-family="Arial" font-size="11.00" fill="#2c3e50">INFP</text>
<text text-anchor="middle" x="328.5" y="-1531.2" font-family="Arial" font-size="11.00" fill="#2c3e50">&#39;The Mediator&#39;</text>
<text text-anchor="middle" x="328.5" y="-1519.2" font-family="Arial" font-size="11.00" fill="#2c3e50">(Fi&#45;Ne&#45;Si&#45;Te)</text>
</g>
<!-- INFP&#45;&gt;ENTJ -->
<g id="edge16" class="edge">
<title>INFP&#45;&gt;ENTJ</title>
<path fill="none" stroke="#27ae60" stroke-width="1.5" d="M371.2,-1527.31C404.72,-1521.94 452.37,-1514.3 490.61,-1508.17"/>
<polygon fill="#27ae60" stroke="#27ae60" stroke-width="1.5" points="491.3,-1511.6 500.62,-1506.56 490.19,-1504.69 491.3,-1511.6"/>
<text text-anchor="middle" x="436" y="-1536.8" font-family="Arial" font-size="9.00" fill="#27ae60">Complementary Stack</text>
<text text-anchor="middle" x="436" y="-1526.8" font-family="Arial" font-size="9.00" fill="#27ae60">(Emotional Grounding)</text>
</g>
<!-- INTJ -->
<g id="node4" class="node">
<title>INTJ</title>
<path fill="#ecf0f1" stroke="#bdc3c7" d="M358.5,-1494C358.5,-1494 298.5,-1494 298.5,-1494 292.5,-1494 286.5,-1488 286.5,-1482 286.5,-1482 286.5,-1462 286.5,-1462 286.5,-1456 292.5,-1450 298.5,-1450 298.5,-1450 358.5,-1450 358.5,-1450 364.5,-1450 370.5,-1456 370.5,-1462 370.5,-1462 370.5,-1482 370.5,-1482 370.5,-1488 364.5,-1494 358.5,-1494"/>
<text text-anchor="middle" x="328.5" y="-1481.2" font-family="Arial" font-size="11.00" fill="#2c3e50">INTJ</text>
<text text-anchor="middle" x="328.5" y="-1469.2" font-family="Arial" font-size="11.00" fill="#2c3e50">&#39;The Architect&#39;</text>
<text text-anchor="middle" x="328.5" y="-1457.2" font-family="Arial" font-size="11.00" fill="#2c3e50">(Ni&#45;Te&#45;Fi&#45;Se)</text>
</g>
<!-- INTJ&#45;&gt;ENTJ -->
<g id="edge17" class="edge">
<title>INTJ&#45;&gt;ENTJ</title>
<path fill="none" stroke="#8e44ad" stroke-width="1.5" d="M370.62,-1475.38C401.57,-1478.09 445.01,-1482.2 483,-1487 485.54,-1487.32 488.14,-1487.66 490.76,-1488.02"/>
<polygon fill="#8e44ad" stroke="#8e44ad" stroke-width="1.5" points="490.54,-1491.52 500.93,-1489.44 491.51,-1484.59 490.54,-1491.52"/>
<text text-anchor="middle" x="436" y="-1499.8" font-family="Arial" font-size="9.00" fill="#8e44ad">Strategic Alignment</text>
<text text-anchor="middle" x="436" y="-1489.8" font-family="Arial" font-size="9.00" fill="#8e44ad">(Deep Conceptual)</text>
</g>
<!-- ISFP -->
<g id="node5" class="node">
<title>ISFP</title>
<path fill="#fff2cc" stroke="#d6b656" d="M356.5,-790C356.5,-790 300.5,-790 300.5,-790 294.5,-790 288.5,-784 288.5,-778 288.5,-778 288.5,-758 288.5,-758 288.5,-752 294.5,-746 300.5,-746 300.5,-746 356.5,-746 356.5,-746 362.5,-746 368.5,-752 368.5,-758 368.5,-758 368.5,-778 368.5,-778 368.5,-784 362.5,-790 356.5,-790"/>
<text text-anchor="middle" x="328.5" y="-777.2" font-family="Arial" font-size="11.00" fill="#7f6000">ISFP</text>
<text text-anchor="middle" x="328.5" y="-765.2" font-family="Arial" font-size="11.00" fill="#7f6000">&#39;The Artist&#39;</text>
<text text-anchor="middle" x="328.5" y="-753.2" font-family="Arial" font-size="11.00" fill="#7f6000">(Fi&#45;Se&#45;Ni&#45;Te)</text>
</g>
<!-- ISFP&#45;&gt;ENTJ -->
<g id="edge18" class="edge">
<title>ISFP&#45;&gt;ENTJ</title>
<path fill="none" stroke="#e67e22" stroke-width="1.2" stroke-dasharray="5,2" d="M336.34,-790.25C368.68,-895.41 506.26,-1342.77 544.25,-1466.29"/>
<polygon fill="#e67e22" stroke="#e67e22" stroke-width="1.2" points="540.93,-1467.4 547.21,-1475.93 547.62,-1465.34 540.93,-1467.4"/>
<text text-anchor="middle" x="436" y="-1273.8" font-family="Arial" font-size="9.00" fill="#e67e22">Socionics Duality</text>
<text text-anchor="middle" x="436" y="-1263.8" font-family="Arial" font-size="9.00" fill="#e67e22">(Accelerated Growth)</text>
</g>
<!-- Starfire -->
<g id="node6" class="node">
<title>Starfire</title>
<path fill="#e8f8f5" stroke="transparent" d="M148.5,-2452C148.5,-2452 12.5,-2452 12.5,-2452 6.5,-2452 0.5,-2446 0.5,-2440 0.5,-2440 0.5,-2276 0.5,-2276 0.5,-2270 6.5,-2264 12.5,-2264 12.5,-2264 148.5,-2264 148.5,-2264 154.5,-2264 160.5,-2270 160.5,-2276 160.5,-2276 160.5,-2440 160.5,-2440 160.5,-2446 154.5,-2452 148.5,-2452"/>
<image xlink:href="/home/drake/Documents/github/ink-and-silence/mine/dossier/MBTI/media/starfire head flat,750x,075,f-pad,750x1000,f8f8f8.u2.jpg" width="140px" height="176px" preserveAspectRatio="xMinYMin meet" x="10.5" y="-2446"/>
</g>
<!-- Starfire&#45;&gt;INFP -->
<g id="edge1" class="edge">
<title>Starfire&#45;&gt;INFP</title>
<path fill="none" stroke="#7f8c8d" d="M155.3,-2263.98C157.26,-2260.98 159.16,-2257.98 161,-2255 218.68,-2161.42 241.55,-2138.7 268,-2032 280.49,-1981.6 261.84,-1610.97 286,-1565 286.1,-1564.8 286.21,-1564.6 286.32,-1564.41"/>
<polygon fill="#7f8c8d" stroke="#7f8c8d" points="289.26,-1566.31 292.3,-1556.17 283.59,-1562.2 289.26,-1566.31"/>
<text text-anchor="middle" x="223.5" y="-2226.8" font-family="Arial" font-size="9.00"> XNFP Core Depth</text>
</g>
<!-- Strategist -->
<g id="node7" class="node">
<title>Strategist</title>
<path fill="#e8f8f5" stroke="#a3e4d7" d="M149,-978C149,-978 12,-978 12,-978 6,-978 0,-972 0,-966 0,-966 0,-954 0,-954 0,-948 6,-942 12,-942 12,-942 149,-942 149,-942 155,-942 161,-948 161,-954 161,-954 161,-966 161,-966 161,-972 155,-978 149,-978"/>
<text text-anchor="middle" x="80.5" y="-963.2" font-family="Arial" font-size="11.00" fill="#117a65">Strategic Counterpart</text>
<text text-anchor="middle" x="80.5" y="-951.2" font-family="Arial" font-size="11.00" fill="#117a65">(Long&#45;term Planning &amp; Vision)</text>
</g>
<!-- Strategist&#45;&gt;INTJ -->
<g id="edge9" class="edge">
<title>Strategist&#45;&gt;INTJ</title>
<path fill="none" stroke="#7f8c8d" d="M148.9,-978.16C153.25,-980.73 157.34,-983.66 161,-987 297.55,-1111.53 322.13,-1353.02 326.54,-1439.89"/>
<polygon fill="#7f8c8d" stroke="#7f8c8d" points="323.04,-1440.1 326.99,-1449.93 330.04,-1439.79 323.04,-1440.1"/>
<text text-anchor="middle" x="223.5" y="-1148.8" font-family="Arial" font-size="9.00"> Shared Vision</text>
</g>
<!-- Creative -->
<g id="node8" class="node">
<title>Creative</title>
<path fill="#e8f8f5" stroke="#a3e4d7" d="M143,-924C143,-924 18,-924 18,-924 12,-924 6,-918 6,-912 6,-912 6,-900 6,-900 6,-894 12,-888 18,-888 18,-888 143,-888 143,-888 149,-888 155,-894 155,-900 155,-900 155,-912 155,-912 155,-918 149,-924 143,-924"/>
<text text-anchor="middle" x="80.5" y="-909.2" font-family="Arial" font-size="11.00" fill="#117a65">Aesthetic Counterpart</text>
<text text-anchor="middle" x="80.5" y="-897.2" font-family="Arial" font-size="11.00" fill="#117a65">(Present Moment &amp; Values)</text>
</g>
<!-- Creative&#45;&gt;ISFP -->
<g id="edge10" class="edge">
<title>Creative&#45;&gt;ISFP</title>
<path fill="none" stroke="#7f8c8d" d="M140.39,-887.94C147.45,-885.21 154.46,-882.22 161,-879 208.49,-855.61 258.44,-820.73 291.09,-796.34"/>
<polygon fill="#7f8c8d" stroke="#7f8c8d" points="293.54,-798.88 299.42,-790.06 289.32,-793.29 293.54,-798.88"/>
<text text-anchor="middle" x="223.5" y="-870.8" font-family="Arial" font-size="9.00"> Dual Function Stack</text>
</g>
<!-- Barbie -->
<g id="node9" class="node">
<title>Barbie</title>
<path fill="#e8f8f5" stroke="transparent" d="M148.5,-2246C148.5,-2246 12.5,-2246 12.5,-2246 6.5,-2246 0.5,-2240 0.5,-2234 0.5,-2234 0.5,-2070 0.5,-2070 0.5,-2064 6.5,-2058 12.5,-2058 12.5,-2058 148.5,-2058 148.5,-2058 154.5,-2058 160.5,-2064 160.5,-2070 160.5,-2070 160.5,-2234 160.5,-2234 160.5,-2240 154.5,-2246 148.5,-2246"/>
<image xlink:href="/home/drake/Documents/github/ink-and-silence/mine/dossier/MBTI/media/INFP barbie.png" width="95px" height="137px" preserveAspectRatio="xMinYMin meet" x="33" y="-2220.5"/>
</g>
<!-- Barbie&#45;&gt;INFP -->
<g id="edge2" class="edge">
<title>Barbie&#45;&gt;INFP</title>
<path fill="none" stroke="#7f8c8d" d="M155.29,-2057.97C157.25,-2054.97 159.16,-2051.98 161,-2049 218.55,-1955.81 239.96,-1932.88 268,-1827 282.94,-1770.58 258.08,-1616.25 286,-1565 286.11,-1564.8 286.22,-1564.61 286.33,-1564.41"/>
<polygon fill="#7f8c8d" stroke="#7f8c8d" points="289.26,-1566.34 292.4,-1556.22 283.63,-1562.17 289.26,-1566.34"/>
<text text-anchor="middle" x="223.5" y="-2020.8" font-family="Arial" font-size="9.00"> Archetype Candidate</text>
</g>
<!-- Carrie -->
<g id="node10" class="node">
<title>Carrie</title>
<path fill="#e8f8f5" stroke="transparent" d="M148.5,-2040C148.5,-2040 12.5,-2040 12.5,-2040 6.5,-2040 0.5,-2034 0.5,-2028 0.5,-2028 0.5,-1864 0.5,-1864 0.5,-1858 6.5,-1852 12.5,-1852 12.5,-1852 148.5,-1852 148.5,-1852 154.5,-1852 160.5,-1858 160.5,-1864 160.5,-1864 160.5,-2028 160.5,-2028 160.5,-2034 154.5,-2040 148.5,-2040"/>
<image xlink:href="/home/drake/Documents/github/ink-and-silence/mine/dossier/MBTI/media/INFP carrie.png" width="101px" height="113px" preserveAspectRatio="xMinYMin meet" x="30" y="-2002.5"/>
</g>
<!-- Carrie&#45;&gt;INFP -->
<g id="edge3" class="edge">
<title>Carrie&#45;&gt;INFP</title>
<path fill="none" stroke="#7f8c8d" d="M154.95,-1851.75C157.01,-1848.82 159.03,-1845.9 161,-1843 213.31,-1766.02 235.3,-1750.13 268,-1663 283.56,-1621.54 262.65,-1602.63 286,-1565 286.25,-1564.6 286.51,-1564.2 286.77,-1563.81"/>
<polygon fill="#7f8c8d" stroke="#7f8c8d" points="289.51,-1565.99 293.16,-1556.04 284.1,-1561.54 289.51,-1565.99"/>
<text text-anchor="middle" x="223.5" y="-1815.8" font-family="Arial" font-size="9.00"> Archetype Candidate</text>
</g>
<!-- Coraline -->
<g id="node11" class="node">
<title>Coraline</title>
<path fill="#e8f8f5" stroke="transparent" d="M148.5,-1834C148.5,-1834 12.5,-1834 12.5,-1834 6.5,-1834 0.5,-1828 0.5,-1822 0.5,-1822 0.5,-1658 0.5,-1658 0.5,-1652 6.5,-1646 12.5,-1646 12.5,-1646 148.5,-1646 148.5,-1646 154.5,-1646 160.5,-1652 160.5,-1658 160.5,-1658 160.5,-1822 160.5,-1822 160.5,-1828 154.5,-1834 148.5,-1834"/>
<image xlink:href="/home/drake/Documents/github/ink-and-silence/mine/dossier/MBTI/media/INFP coraline.png" width="103px" height="109px" preserveAspectRatio="xMinYMin meet" x="29" y="-1794.5"/>
</g>
<!-- Coraline&#45;&gt;INFP -->
<g id="edge4" class="edge">
<title>Coraline&#45;&gt;INFP</title>
<path fill="none" stroke="#7f8c8d" d="M160.6,-1670.19C198.11,-1637.63 243.85,-1598.71 286,-1565 287.14,-1564.09 288.3,-1563.17 289.48,-1562.24"/>
<polygon fill="#7f8c8d" stroke="#7f8c8d" points="291.63,-1565 297.4,-1556.12 287.35,-1559.47 291.63,-1565"/>
<text text-anchor="middle" x="223.5" y="-1651.8" font-family="Arial" font-size="9.00"> Archetype Candidate</text>
</g>
<!-- Rapunzel -->
<g id="node12" class="node">
<title>Rapunzel</title>
<path fill="#e8f8f5" stroke="transparent" d="M148.5,-1628C148.5,-1628 12.5,-1628 12.5,-1628 6.5,-1628 0.5,-1622 0.5,-1616 0.5,-1616 0.5,-1452 0.5,-1452 0.5,-1446 6.5,-1440 12.5,-1440 12.5,-1440 148.5,-1440 148.5,-1440 154.5,-1440 160.5,-1446 160.5,-1452 160.5,-1452 160.5,-1616 160.5,-1616 160.5,-1622 154.5,-1628 148.5,-1628"/>
<image xlink:href="/home/drake/Documents/github/ink-and-silence/mine/dossier/MBTI/media/INFP rapunzel.png" width="140px" height="151px" preserveAspectRatio="xMinYMin meet" x="10.5" y="-1609.5"/>
</g>
<!-- Rapunzel&#45;&gt;INFP -->
<g id="edge5" class="edge">
<title>Rapunzel&#45;&gt;INFP</title>
<path fill="none" stroke="#7f8c8d" d="M160.69,-1534C198.21,-1534 241.97,-1534 275.26,-1534"/>
<polygon fill="#7f8c8d" stroke="#7f8c8d" points="275.68,-1537.5 285.68,-1534 275.68,-1530.5 275.68,-1537.5"/>
<text text-anchor="middle" x="223.5" y="-1536.8" font-family="Arial" font-size="9.00"> Archetype Candidate</text>
</g>
<!-- INFP_Unidentified1 -->
<g id="node13" class="node">
<title>INFP_Unidentified1</title>
<path fill="#e8f8f5" stroke="transparent" d="M148.5,-1422C148.5,-1422 12.5,-1422 12.5,-1422 6.5,-1422 0.5,-1416 0.5,-1410 0.5,-1410 0.5,-1230 0.5,-1230 0.5,-1224 6.5,-1218 12.5,-1218 12.5,-1218 148.5,-1218 148.5,-1218 154.5,-1218 160.5,-1224 160.5,-1230 160.5,-1230 160.5,-1410 160.5,-1410 160.5,-1416 154.5,-1422 148.5,-1422"/>
<image xlink:href="/home/drake/Documents/github/ink-and-silence/mine/dossier/MBTI/media/INFP unidentified-1.png" width="113px" height="111px" preserveAspectRatio="xMinYMin meet" x="24" y="-1383.5"/>
<text text-anchor="start" x="77" y="-1227.2" font-family="Arial" font-size="11.00" fill="#117a65">?</text>
</g>
<!-- INFP_Unidentified1&#45;&gt;INFP -->
<g id="edge6" class="edge">
<title>INFP_Unidentified1&#45;&gt;INFP</title>
<path fill="none" stroke="#7f8c8d" d="M160.68,-1393.81C198.02,-1427.85 243.6,-1468.3 286,-1503 287.13,-1503.93 288.29,-1504.86 289.46,-1505.79"/>
<polygon fill="#7f8c8d" stroke="#7f8c8d" points="287.3,-1508.55 297.34,-1511.96 291.62,-1503.04 287.3,-1508.55"/>
</g>
<!-- INFP_Unidentified2 -->
<g id="node14" class="node">
<title>INFP_Unidentified2</title>
<path fill="#e8f8f5" stroke="transparent" d="M148.5,-1200C148.5,-1200 12.5,-1200 12.5,-1200 6.5,-1200 0.5,-1194 0.5,-1188 0.5,-1188 0.5,-1008 0.5,-1008 0.5,-1002 6.5,-996 12.5,-996 12.5,-996 148.5,-996 148.5,-996 154.5,-996 160.5,-1002 160.5,-1008 160.5,-1008 160.5,-1188 160.5,-1188 160.5,-1194 154.5,-1200 148.5,-1200"/>
<image xlink:href="/home/drake/Documents/github/ink-and-silence/mine/dossier/MBTI/media/INFP unidentified-2.png" width="111px" height="113px" preserveAspectRatio="xMinYMin meet" x="25" y="-1162.5"/>
<text text-anchor="start" x="77" y="-1005.2" font-family="Arial" font-size="11.00" fill="#117a65">?</text>
</g>
<!-- INFP_Unidentified2&#45;&gt;INFP -->
<g id="edge7" class="edge">
<title>INFP_Unidentified2&#45;&gt;INFP</title>
<path fill="none" stroke="#7f8c8d" d="M155.43,-1200.17C157.33,-1203.13 159.19,-1206.08 161,-1209 214.36,-1294.99 234.23,-1314.6 268,-1410 282.05,-1449.69 263.63,-1467.33 286,-1503 286.25,-1503.4 286.51,-1503.8 286.77,-1504.19"/>
<polygon fill="#7f8c8d" stroke="#7f8c8d" points="284.12,-1506.47 293.19,-1511.94 289.51,-1502 284.12,-1506.47"/>
</g>
<!-- ISFP_Unidentified1 -->
<g id="node15" class="node">
<title>ISFP_Unidentified1</title>
<path fill="#e8f8f5" stroke="transparent" d="M148.5,-870C148.5,-870 12.5,-870 12.5,-870 6.5,-870 0.5,-864 0.5,-858 0.5,-858 0.5,-678 0.5,-678 0.5,-672 6.5,-666 12.5,-666 12.5,-666 148.5,-666 148.5,-666 154.5,-666 160.5,-672 160.5,-678 160.5,-678 160.5,-858 160.5,-858 160.5,-864 154.5,-870 148.5,-870"/>
<image xlink:href="/home/drake/Documents/github/ink-and-silence/mine/dossier/MBTI/media/ISFP unidentified-1.png" width="125px" height="139px" preserveAspectRatio="xMinYMin meet" x="18" y="-845.5"/>
<text text-anchor="start" x="77" y="-675.2" font-family="Arial" font-size="11.00" fill="#117a65">?</text>
</g>
<!-- ISFP_Unidentified1&#45;&gt;ISFP -->
<g id="edge11" class="edge">
<title>ISFP_Unidentified1&#45;&gt;ISFP</title>
<path fill="none" stroke="#7f8c8d" d="M160.69,-768C199.39,-768 244.74,-768 278.38,-768"/>
<polygon fill="#7f8c8d" stroke="#7f8c8d" points="278.42,-771.5 288.42,-768 278.42,-764.5 278.42,-771.5"/>
</g>
<!-- ISFP_Unidentified2 -->
<g id="node16" class="node">
<title>ISFP_Unidentified2</title>
<path fill="#e8f8f5" stroke="transparent" d="M148.5,-648C148.5,-648 12.5,-648 12.5,-648 6.5,-648 0.5,-642 0.5,-636 0.5,-636 0.5,-456 0.5,-456 0.5,-450 6.5,-444 12.5,-444 12.5,-444 148.5,-444 148.5,-444 154.5,-444 160.5,-450 160.5,-456 160.5,-456 160.5,-636 160.5,-636 160.5,-642 154.5,-648 148.5,-648"/>
<image xlink:href="/home/drake/Documents/github/ink-and-silence/mine/dossier/MBTI/media/ISFP unidentified-2.png" width="137px" height="143px" preserveAspectRatio="xMinYMin meet" x="12" y="-625.5"/>
<text text-anchor="start" x="77" y="-453.2" font-family="Arial" font-size="11.00" fill="#117a65">?</text>
</g>
<!-- ISFP_Unidentified2&#45;&gt;ISFP -->
<g id="edge12" class="edge">
<title>ISFP_Unidentified2&#45;&gt;ISFP</title>
<path fill="none" stroke="#7f8c8d" d="M160.69,-617.46C206.33,-658.65 261.23,-708.2 295.25,-738.9"/>
<polygon fill="#7f8c8d" stroke="#7f8c8d" points="293.25,-741.8 303.01,-745.9 297.94,-736.61 293.25,-741.8"/>
</g>
<!-- ISFP_Unidentified3 -->
<g id="node17" class="node">
<title>ISFP_Unidentified3</title>
<path fill="#e8f8f5" stroke="transparent" d="M148.5,-426C148.5,-426 12.5,-426 12.5,-426 6.5,-426 0.5,-420 0.5,-414 0.5,-414 0.5,-234 0.5,-234 0.5,-228 6.5,-222 12.5,-222 12.5,-222 148.5,-222 148.5,-222 154.5,-222 160.5,-228 160.5,-234 160.5,-234 160.5,-414 160.5,-414 160.5,-420 154.5,-426 148.5,-426"/>
<image xlink:href="/home/drake/Documents/github/ink-and-silence/mine/dossier/MBTI/media/ISFP unidentified-3.png" width="133px" height="147px" preserveAspectRatio="xMinYMin meet" x="14" y="-405.5"/>
<text text-anchor="start" x="77" y="-231.2" font-family="Arial" font-size="11.00" fill="#117a65">?</text>
</g>
<!-- ISFP_Unidentified3&#45;&gt;ISFP -->
<g id="edge13" class="edge">
<title>ISFP_Unidentified3&#45;&gt;ISFP</title>
<path fill="none" stroke="#7f8c8d" d="M155.4,-426.19C157.31,-429.14 159.18,-432.09 161,-435 214,-519.83 224.02,-543.16 268,-633 285.05,-667.83 302.75,-708.68 314.36,-736.25"/>
<polygon fill="#7f8c8d" stroke="#7f8c8d" points="311.26,-737.9 318.35,-745.77 317.71,-735.19 311.26,-737.9"/>
</g>
<!-- ISFP_Unidentified4 -->
<g id="node18" class="node">
<title>ISFP_Unidentified4</title>
<path fill="#e8f8f5" stroke="transparent" d="M148.5,-204C148.5,-204 12.5,-204 12.5,-204 6.5,-204 0.5,-198 0.5,-192 0.5,-192 0.5,-12 0.5,-12 0.5,-6 6.5,0 12.5,0 12.5,0 148.5,0 148.5,0 154.5,0 160.5,-6 160.5,-12 160.5,-12 160.5,-192 160.5,-192 160.5,-198 154.5,-204 148.5,-204"/>
<image xlink:href="/home/drake/Documents/github/ink-and-silence/mine/dossier/MBTI/media/ISFP unidentified-4.png" width="140px" height="147px" preserveAspectRatio="xMinYMin meet" x="10.5" y="-183.5"/>
<text text-anchor="start" x="77" y="-9.2" font-family="Arial" font-size="11.00" fill="#117a65">?</text>
</g>
<!-- ISFP_Unidentified4&#45;&gt;ISFP -->
<g id="edge14" class="edge">
<title>ISFP_Unidentified4&#45;&gt;ISFP</title>
<path fill="none" stroke="#7f8c8d" d="M155.95,-204.29C157.68,-207.2 159.37,-210.11 161,-213 220.31,-318.3 232.45,-347.49 268,-463 297.89,-560.12 316.01,-679.44 323.49,-735.72"/>
<polygon fill="#7f8c8d" stroke="#7f8c8d" points="320.04,-736.32 324.81,-745.79 326.98,-735.42 320.04,-736.32"/>
</g>
<!-- Analyst -->
<g id="node19" class="node">
<title>Analyst</title>
<path fill="#e8f8f5" stroke="#a3e4d7" d="M95.5,-2506C95.5,-2506 65.5,-2506 65.5,-2506 59.5,-2506 53.5,-2500 53.5,-2494 53.5,-2494 53.5,-2482 53.5,-2482 53.5,-2476 59.5,-2470 65.5,-2470 65.5,-2470 95.5,-2470 95.5,-2470 101.5,-2470 107.5,-2476 107.5,-2482 107.5,-2482 107.5,-2494 107.5,-2494 107.5,-2500 101.5,-2506 95.5,-2506"/>
<text text-anchor="middle" x="80.5" y="-2485.2" font-family="Arial" font-size="11.00" fill="#117a65">Analyst</text>
</g>
<!-- Analyst&#45;&gt;INTP -->
<g id="edge8" class="edge">
<title>Analyst&#45;&gt;INTP</title>
<path fill="none" stroke="#7f8c8d" d="M107.75,-2484.43C124.66,-2480.95 146.17,-2474.15 161,-2461 243.25,-2388.07 238.69,-2343.95 268,-2238 300.35,-2121.08 320.57,-1741.89 326.01,-1628.39"/>
<polygon fill="#7f8c8d" stroke="#7f8c8d" points="329.52,-1628.41 326.49,-1618.25 322.53,-1628.08 329.52,-1628.41"/>
<text text-anchor="middle" x="223.5" y="-2446.8" font-family="Arial" font-size="9.00"> Grounded Logic</text>
</g>
</g>
</svg>
