<?xml version="1.0" encoding="UTF-8" standalone="no"?>
<!DOCTYPE svg PUBLIC "-//W3C//DTD SVG 1.1//EN"
 "http://www.w3.org/Graphics/SVG/1.1/DTD/svg11.dtd">
<!-- Generated by graphviz version 2.43.0 (0)
 -->
<!-- Title: MBTI_Compatibility Pages: 1 -->
<svg width="617pt" height="1084pt"
 viewBox="0.00 0.00 617.00 1084.00" xmlns="http://www.w3.org/2000/svg" xmlns:xlink="http://www.w3.org/1999/xlink">
<g id="graph0" class="graph" transform="scale(1 1) rotate(0) translate(4 1080)">
<title>MBTI_Compatibility</title>
<polygon fill="white" stroke="transparent" points="-4,4 -4,-1080 613,-1080 613,4 -4,4"/>
<!-- ENTJ -->
<g id="node1" class="node">
<title>ENTJ</title>
<path fill="#2c3e50" stroke="black" d="M597,-679C597,-679 513,-679 513,-679 507,-679 501,-673 501,-667 501,-667 501,-647 501,-647 501,-641 507,-635 513,-635 513,-635 597,-635 597,-635 603,-635 609,-641 609,-647 609,-647 609,-667 609,-667 609,-673 603,-679 597,-679"/>
<text text-anchor="middle" x="555" y="-666.2" font-family="Arial" font-size="11.00" fill="white">ENTJ</text>
<text text-anchor="middle" x="555" y="-654.2" font-family="Arial" font-size="11.00" fill="white">&#39;The Commander&#39;</text>
<text text-anchor="middle" x="555" y="-642.2" font-family="Arial" font-size="11.00" fill="white">(Te&#45;Ni&#45;Se&#45;Fi)</text>
</g>
<!-- INTP -->
<g id="node2" class="node">
<title>INTP</title>
<path fill="#ecf0f1" stroke="#bdc3c7" d="M356.5,-773C356.5,-773 300.5,-773 300.5,-773 294.5,-773 288.5,-767 288.5,-761 288.5,-761 288.5,-741 288.5,-741 288.5,-735 294.5,-729 300.5,-729 300.5,-729 356.5,-729 356.5,-729 362.5,-729 368.5,-735 368.5,-741 368.5,-741 368.5,-761 368.5,-761 368.5,-767 362.5,-773 356.5,-773"/>
<text text-anchor="middle" x="328.5" y="-760.2" font-family="Arial" font-size="11.00" fill="#2c3e50">INTP</text>
<text text-anchor="middle" x="328.5" y="-748.2" font-family="Arial" font-size="11.00" fill="#2c3e50">&#39;The Thinker&#39;</text>
<text text-anchor="middle" x="328.5" y="-736.2" font-family="Arial" font-size="11.00" fill="#2c3e50">(Ti&#45;Ne&#45;Si&#45;Fe)</text>
</g>
<!-- INTP&#45;&gt;ENTJ -->
<g id="edge15" class="edge">
<title>INTP&#45;&gt;ENTJ</title>
<path fill="none" stroke="#2980b9" stroke-width="1.5" d="M368.81,-742.28C400.53,-734.47 445.82,-721.54 483,-704 494.28,-698.68 505.84,-691.76 516.26,-684.87"/>
<polygon fill="#2980b9" stroke="#2980b9" stroke-width="1.5" points="518.41,-687.64 524.72,-679.13 514.48,-681.85 518.41,-687.64"/>
<text text-anchor="middle" x="436" y="-748.8" font-family="Arial" font-size="9.00" fill="#2980b9">Ultimate Intellect</text>
<text text-anchor="middle" x="436" y="-738.8" font-family="Arial" font-size="9.00" fill="#2980b9">(Allows ENTJ Lead)</text>
</g>
<!-- INFP -->
<g id="node3" class="node">
<title>INFP</title>
<path fill="#ecf0f1" stroke="#bdc3c7" d="M359,-711C359,-711 298,-711 298,-711 292,-711 286,-705 286,-699 286,-699 286,-679 286,-679 286,-673 292,-667 298,-667 298,-667 359,-667 359,-667 365,-667 371,-673 371,-679 371,-679 371,-699 371,-699 371,-705 365,-711 359,-711"/>
<text text-anchor="middle" x="328.5" y="-698.2" font-family="Arial" font-size="11.00" fill="#2c3e50">INFP</text>
<text text-anchor="middle" x="328.5" y="-686.2" font-family="Arial" font-size="11.00" fill="#2c3e50">&#39;The Mediator&#39;</text>
<text text-anchor="middle" x="328.5" y="-674.2" font-family="Arial" font-size="11.00" fill="#2c3e50">(Fi&#45;Ne&#45;Si&#45;Te)</text>
</g>
<!-- INFP&#45;&gt;ENTJ -->
<g id="edge16" class="edge">
<title>INFP&#45;&gt;ENTJ</title>
<path fill="none" stroke="#27ae60" stroke-width="1.5" d="M371.2,-683.06C404.72,-678.28 452.37,-671.49 490.61,-666.04"/>
<polygon fill="#27ae60" stroke="#27ae60" stroke-width="1.5" points="491.21,-669.49 500.62,-664.61 490.22,-662.56 491.21,-669.49"/>
<text text-anchor="middle" x="436" y="-692.8" font-family="Arial" font-size="9.00" fill="#27ae60">Complementary Stack</text>
<text text-anchor="middle" x="436" y="-682.8" font-family="Arial" font-size="9.00" fill="#27ae60">(Emotional Grounding)</text>
</g>
<!-- INTJ -->
<g id="node4" class="node">
<title>INTJ</title>
<path fill="#ecf0f1" stroke="#bdc3c7" d="M358.5,-649C358.5,-649 298.5,-649 298.5,-649 292.5,-649 286.5,-643 286.5,-637 286.5,-637 286.5,-617 286.5,-617 286.5,-611 292.5,-605 298.5,-605 298.5,-605 358.5,-605 358.5,-605 364.5,-605 370.5,-611 370.5,-617 370.5,-617 370.5,-637 370.5,-637 370.5,-643 364.5,-649 358.5,-649"/>
<text text-anchor="middle" x="328.5" y="-636.2" font-family="Arial" font-size="11.00" fill="#2c3e50">INTJ</text>
<text text-anchor="middle" x="328.5" y="-624.2" font-family="Arial" font-size="11.00" fill="#2c3e50">&#39;The Architect&#39;</text>
<text text-anchor="middle" x="328.5" y="-612.2" font-family="Arial" font-size="11.00" fill="#2c3e50">(Ni&#45;Te&#45;Fi&#45;Se)</text>
</g>
<!-- INTJ&#45;&gt;ENTJ -->
<g id="edge17" class="edge">
<title>INTJ&#45;&gt;ENTJ</title>
<path fill="none" stroke="#8e44ad" stroke-width="1.5" d="M370.7,-629.78C401.69,-632.17 445.16,-636.17 483,-642 485.51,-642.39 488.06,-642.8 490.63,-643.25"/>
<polygon fill="#8e44ad" stroke="#8e44ad" stroke-width="1.5" points="490.15,-646.72 500.62,-645.06 491.4,-639.83 490.15,-646.72"/>
<text text-anchor="middle" x="436" y="-654.8" font-family="Arial" font-size="9.00" fill="#8e44ad">Strategic Alignment</text>
<text text-anchor="middle" x="436" y="-644.8" font-family="Arial" font-size="9.00" fill="#8e44ad">(Deep Conceptual)</text>
</g>
<!-- ISFP -->
<g id="node5" class="node">
<title>ISFP</title>
<path fill="#fff2cc" stroke="#d6b656" d="M356.5,-335C356.5,-335 300.5,-335 300.5,-335 294.5,-335 288.5,-329 288.5,-323 288.5,-323 288.5,-303 288.5,-303 288.5,-297 294.5,-291 300.5,-291 300.5,-291 356.5,-291 356.5,-291 362.5,-291 368.5,-297 368.5,-303 368.5,-303 368.5,-323 368.5,-323 368.5,-329 362.5,-335 356.5,-335"/>
<text text-anchor="middle" x="328.5" y="-322.2" font-family="Arial" font-size="11.00" fill="#7f6000">ISFP</text>
<text text-anchor="middle" x="328.5" y="-310.2" font-family="Arial" font-size="11.00" fill="#7f6000">&#39;The Artist&#39;</text>
<text text-anchor="middle" x="328.5" y="-298.2" font-family="Arial" font-size="11.00" fill="#7f6000">(Fi&#45;Se&#45;Ni&#45;Te)</text>
</g>
<!-- ISFP&#45;&gt;ENTJ -->
<g id="edge18" class="edge">
<title>ISFP&#45;&gt;ENTJ</title>
<path fill="none" stroke="#e67e22" stroke-width="1.2" stroke-dasharray="5,2" d="M343.88,-335.04C382.6,-394.36 489.09,-557.53 533.81,-626.06"/>
<polygon fill="#e67e22" stroke="#e67e22" stroke-width="1.2" points="531.05,-628.23 539.44,-634.7 536.91,-624.41 531.05,-628.23"/>
<text text-anchor="middle" x="436" y="-557.8" font-family="Arial" font-size="9.00" fill="#e67e22">Socionics Duality</text>
<text text-anchor="middle" x="436" y="-547.8" font-family="Arial" font-size="9.00" fill="#e67e22">(Accelerated Growth)</text>
</g>
<!-- Starfire -->
<g id="node6" class="node">
<title>Starfire</title>
<path fill="#e8f8f5" stroke="transparent" d="M116.5,-1022C116.5,-1022 44.5,-1022 44.5,-1022 38.5,-1022 32.5,-1016 32.5,-1010 32.5,-1010 32.5,-976 32.5,-976 32.5,-970 38.5,-964 44.5,-964 44.5,-964 116.5,-964 116.5,-964 122.5,-964 128.5,-970 128.5,-976 128.5,-976 128.5,-1010 128.5,-1010 128.5,-1016 122.5,-1022 116.5,-1022"/>
<image xlink:href="/home/drake/Documents/github/ink-and-silence/mine/dossier/MBTI/media/starfire head flat,750x,075,f-pad,750x1000,f8f8f8.u2.jpg" width="76px" height="46px" preserveAspectRatio="xMinYMin meet" x="42.5" y="-1016"/>
</g>
<!-- Starfire&#45;&gt;INFP -->
<g id="edge1" class="edge">
<title>Starfire&#45;&gt;INFP</title>
<path fill="none" stroke="#7f8c8d" d="M128.58,-982.38C172.6,-969.77 236.19,-944.09 268,-896 311.38,-830.42 247.23,-788.41 286,-720 286.11,-719.8 286.22,-719.61 286.34,-719.42"/>
<polygon fill="#7f8c8d" stroke="#7f8c8d" points="289.25,-721.36 292.51,-711.28 283.68,-717.13 289.25,-721.36"/>
<text text-anchor="middle" x="223.5" y="-965.8" font-family="Arial" font-size="9.00"> XNFP Core Depth</text>
</g>
<!-- Strategist -->
<g id="node7" class="node">
<title>Strategist</title>
<path fill="#e8f8f5" stroke="#a3e4d7" d="M149,-458C149,-458 12,-458 12,-458 6,-458 0,-452 0,-446 0,-446 0,-434 0,-434 0,-428 6,-422 12,-422 12,-422 149,-422 149,-422 155,-422 161,-428 161,-434 161,-434 161,-446 161,-446 161,-452 155,-458 149,-458"/>
<text text-anchor="middle" x="80.5" y="-443.2" font-family="Arial" font-size="11.00" fill="#117a65">Strategic Counterpart</text>
<text text-anchor="middle" x="80.5" y="-431.2" font-family="Arial" font-size="11.00" fill="#117a65">(Long&#45;term Planning &amp; Vision)</text>
</g>
<!-- Strategist&#45;&gt;INTJ -->
<g id="edge9" class="edge">
<title>Strategist&#45;&gt;INTJ</title>
<path fill="none" stroke="#7f8c8d" d="M142.41,-458.08C148.84,-460.75 155.15,-463.72 161,-467 220.74,-500.46 274.88,-560.5 304.3,-596.75"/>
<polygon fill="#7f8c8d" stroke="#7f8c8d" points="301.91,-599.37 310.89,-604.99 307.38,-594.99 301.91,-599.37"/>
<text text-anchor="middle" x="223.5" y="-555.8" font-family="Arial" font-size="9.00"> Shared Vision</text>
</g>
<!-- Creative -->
<g id="node8" class="node">
<title>Creative</title>
<path fill="#e8f8f5" stroke="#a3e4d7" d="M143,-404C143,-404 18,-404 18,-404 12,-404 6,-398 6,-392 6,-392 6,-380 6,-380 6,-374 12,-368 18,-368 18,-368 143,-368 143,-368 149,-368 155,-374 155,-380 155,-380 155,-392 155,-392 155,-398 149,-404 143,-404"/>
<text text-anchor="middle" x="80.5" y="-389.2" font-family="Arial" font-size="11.00" fill="#117a65">Aesthetic Counterpart</text>
<text text-anchor="middle" x="80.5" y="-377.2" font-family="Arial" font-size="11.00" fill="#117a65">(Present Moment &amp; Values)</text>
</g>
<!-- Creative&#45;&gt;ISFP -->
<g id="edge10" class="edge">
<title>Creative&#45;&gt;ISFP</title>
<path fill="none" stroke="#7f8c8d" d="M142.31,-367.96C184.41,-355.46 239.71,-339.05 278.89,-327.43"/>
<polygon fill="#7f8c8d" stroke="#7f8c8d" points="279.89,-330.78 288.48,-324.58 277.9,-324.07 279.89,-330.78"/>
<text text-anchor="middle" x="223.5" y="-358.8" font-family="Arial" font-size="9.00"> Dual Function Stack</text>
</g>
<!-- Barbie -->
<g id="node9" class="node">
<title>Barbie</title>
<path fill="#e8f8f5" stroke="transparent" d="M116.5,-946C116.5,-946 44.5,-946 44.5,-946 38.5,-946 32.5,-940 32.5,-934 32.5,-934 32.5,-900 32.5,-900 32.5,-894 38.5,-888 44.5,-888 44.5,-888 116.5,-888 116.5,-888 122.5,-888 128.5,-894 128.5,-900 128.5,-900 128.5,-934 128.5,-934 128.5,-940 122.5,-946 116.5,-946"/>
<image xlink:href="/home/drake/Documents/github/ink-and-silence/mine/dossier/MBTI/media/INFP barbie.png" width="76px" height="46px" preserveAspectRatio="xMinYMin meet" x="42.5" y="-940"/>
</g>
<!-- Barbie&#45;&gt;INFP -->
<g id="edge2" class="edge">
<title>Barbie&#45;&gt;INFP</title>
<path fill="none" stroke="#7f8c8d" d="M128.7,-904.6C172.17,-890.58 234.79,-863.32 268,-816 292.94,-780.47 263.04,-756.84 286,-720 286.25,-719.6 286.51,-719.2 286.77,-718.81"/>
<polygon fill="#7f8c8d" stroke="#7f8c8d" points="289.51,-720.99 293.17,-711.05 284.11,-716.54 289.51,-720.99"/>
<text text-anchor="middle" x="223.5" y="-884.8" font-family="Arial" font-size="9.00"> Archetype Candidate</text>
</g>
<!-- Carrie -->
<g id="node10" class="node">
<title>Carrie</title>
<path fill="#e8f8f5" stroke="transparent" d="M116.5,-870C116.5,-870 44.5,-870 44.5,-870 38.5,-870 32.5,-864 32.5,-858 32.5,-858 32.5,-824 32.5,-824 32.5,-818 38.5,-812 44.5,-812 44.5,-812 116.5,-812 116.5,-812 122.5,-812 128.5,-818 128.5,-824 128.5,-824 128.5,-858 128.5,-858 128.5,-864 122.5,-870 116.5,-870"/>
<image xlink:href="/home/drake/Documents/github/ink-and-silence/mine/dossier/MBTI/media/INFP carrie.png" width="76px" height="46px" preserveAspectRatio="xMinYMin meet" x="42.5" y="-864"/>
</g>
<!-- Carrie&#45;&gt;INFP -->
<g id="edge3" class="edge">
<title>Carrie&#45;&gt;INFP</title>
<path fill="none" stroke="#7f8c8d" d="M128.54,-825.31C168.96,-810.08 227.02,-783.85 268,-747 278.72,-737.36 276.08,-730.47 286,-720 286.53,-719.44 287.08,-718.88 287.63,-718.32"/>
<polygon fill="#7f8c8d" stroke="#7f8c8d" points="290.28,-720.64 295.28,-711.3 285.55,-715.48 290.28,-720.64"/>
<text text-anchor="middle" x="223.5" y="-804.8" font-family="Arial" font-size="9.00"> Archetype Candidate</text>
</g>
<!-- Coraline -->
<g id="node11" class="node">
<title>Coraline</title>
<path fill="#e8f8f5" stroke="transparent" d="M116.5,-794C116.5,-794 44.5,-794 44.5,-794 38.5,-794 32.5,-788 32.5,-782 32.5,-782 32.5,-748 32.5,-748 32.5,-742 38.5,-736 44.5,-736 44.5,-736 116.5,-736 116.5,-736 122.5,-736 128.5,-742 128.5,-748 128.5,-748 128.5,-782 128.5,-782 128.5,-788 122.5,-794 116.5,-794"/>
<image xlink:href="/home/drake/Documents/github/ink-and-silence/mine/dossier/MBTI/media/INFP coraline.png" width="76px" height="46px" preserveAspectRatio="xMinYMin meet" x="42.5" y="-788"/>
</g>
<!-- Coraline&#45;&gt;INFP -->
<g id="edge4" class="edge">
<title>Coraline&#45;&gt;INFP</title>
<path fill="none" stroke="#7f8c8d" d="M128.64,-750.44C170.83,-737.4 232.57,-718.33 276.04,-704.9"/>
<polygon fill="#7f8c8d" stroke="#7f8c8d" points="277.32,-708.17 285.84,-701.87 275.25,-701.48 277.32,-708.17"/>
<text text-anchor="middle" x="223.5" y="-735.8" font-family="Arial" font-size="9.00"> Archetype Candidate</text>
</g>
<!-- Rapunzel -->
<g id="node12" class="node">
<title>Rapunzel</title>
<path fill="#e8f8f5" stroke="transparent" d="M116.5,-718C116.5,-718 44.5,-718 44.5,-718 38.5,-718 32.5,-712 32.5,-706 32.5,-706 32.5,-672 32.5,-672 32.5,-666 38.5,-660 44.5,-660 44.5,-660 116.5,-660 116.5,-660 122.5,-660 128.5,-666 128.5,-672 128.5,-672 128.5,-706 128.5,-706 128.5,-712 122.5,-718 116.5,-718"/>
<image xlink:href="/home/drake/Documents/github/ink-and-silence/mine/dossier/MBTI/media/INFP rapunzel.png" width="76px" height="46px" preserveAspectRatio="xMinYMin meet" x="42.5" y="-712"/>
</g>
<!-- Rapunzel&#45;&gt;INFP -->
<g id="edge5" class="edge">
<title>Rapunzel&#45;&gt;INFP</title>
<path fill="none" stroke="#7f8c8d" d="M128.64,-689C170.75,-689 232.31,-689 275.76,-689"/>
<polygon fill="#7f8c8d" stroke="#7f8c8d" points="275.84,-692.5 285.84,-689 275.84,-685.5 275.84,-692.5"/>
<text text-anchor="middle" x="223.5" y="-691.8" font-family="Arial" font-size="9.00"> Archetype Candidate</text>
</g>
<!-- INFP_Unidentified1 -->
<g id="node13" class="node">
<title>INFP_Unidentified1</title>
<path fill="#e8f8f5" stroke="transparent" d="M116.5,-642C116.5,-642 44.5,-642 44.5,-642 38.5,-642 32.5,-636 32.5,-630 32.5,-630 32.5,-580 32.5,-580 32.5,-574 38.5,-568 44.5,-568 44.5,-568 116.5,-568 116.5,-568 122.5,-568 128.5,-574 128.5,-580 128.5,-580 128.5,-630 128.5,-630 128.5,-636 122.5,-642 116.5,-642"/>
<image xlink:href="/home/drake/Documents/github/ink-and-silence/mine/dossier/MBTI/media/INFP unidentified-1.png" width="76px" height="46px" preserveAspectRatio="xMinYMin meet" x="42.5" y="-636"/>
<text text-anchor="start" x="77" y="-577.2" font-family="Arial" font-size="11.00" fill="#117a65">?</text>
</g>
<!-- INFP_Unidentified1&#45;&gt;INFP -->
<g id="edge6" class="edge">
<title>INFP_Unidentified1&#45;&gt;INFP</title>
<path fill="none" stroke="#7f8c8d" d="M128.64,-621.1C170.92,-635.53 232.83,-656.67 276.31,-671.52"/>
<polygon fill="#7f8c8d" stroke="#7f8c8d" points="275.25,-674.86 285.84,-674.78 277.51,-668.23 275.25,-674.86"/>
</g>
<!-- INFP_Unidentified2 -->
<g id="node14" class="node">
<title>INFP_Unidentified2</title>
<path fill="#e8f8f5" stroke="transparent" d="M116.5,-550C116.5,-550 44.5,-550 44.5,-550 38.5,-550 32.5,-544 32.5,-538 32.5,-538 32.5,-488 32.5,-488 32.5,-482 38.5,-476 44.5,-476 44.5,-476 116.5,-476 116.5,-476 122.5,-476 128.5,-482 128.5,-488 128.5,-488 128.5,-538 128.5,-538 128.5,-544 122.5,-550 116.5,-550"/>
<image xlink:href="/home/drake/Documents/github/ink-and-silence/mine/dossier/MBTI/media/INFP unidentified-2.png" width="76px" height="46px" preserveAspectRatio="xMinYMin meet" x="42.5" y="-544"/>
<text text-anchor="start" x="77" y="-485.2" font-family="Arial" font-size="11.00" fill="#117a65">?</text>
</g>
<!-- INFP_Unidentified2&#45;&gt;INFP -->
<g id="edge7" class="edge">
<title>INFP_Unidentified2&#45;&gt;INFP</title>
<path fill="none" stroke="#7f8c8d" d="M128.6,-539.28C139.36,-545.56 150.67,-552.36 161,-559 210.07,-590.53 225.81,-594.72 268,-635 277.39,-643.96 276.72,-648.93 286,-658 286.77,-658.75 287.56,-659.51 288.37,-660.25"/>
<polygon fill="#7f8c8d" stroke="#7f8c8d" points="286.1,-662.92 295.94,-666.84 290.69,-657.64 286.1,-662.92"/>
</g>
<!-- ISFP_Unidentified1 -->
<g id="node15" class="node">
<title>ISFP_Unidentified1</title>
<path fill="#e8f8f5" stroke="transparent" d="M116.5,-350C116.5,-350 44.5,-350 44.5,-350 38.5,-350 32.5,-344 32.5,-338 32.5,-338 32.5,-288 32.5,-288 32.5,-282 38.5,-276 44.5,-276 44.5,-276 116.5,-276 116.5,-276 122.5,-276 128.5,-282 128.5,-288 128.5,-288 128.5,-338 128.5,-338 128.5,-344 122.5,-350 116.5,-350"/>
<image xlink:href="/home/drake/Documents/github/ink-and-silence/mine/dossier/MBTI/media/ISFP unidentified-1.png" width="76px" height="46px" preserveAspectRatio="xMinYMin meet" x="42.5" y="-344"/>
<text text-anchor="start" x="77" y="-285.2" font-family="Arial" font-size="11.00" fill="#117a65">?</text>
</g>
<!-- ISFP_Unidentified1&#45;&gt;ISFP -->
<g id="edge11" class="edge">
<title>ISFP_Unidentified1&#45;&gt;ISFP</title>
<path fill="none" stroke="#7f8c8d" d="M128.64,-313C171.52,-313 234.58,-313 278.14,-313"/>
<polygon fill="#7f8c8d" stroke="#7f8c8d" points="278.22,-316.5 288.22,-313 278.22,-309.5 278.22,-316.5"/>
</g>
<!-- ISFP_Unidentified2 -->
<g id="node16" class="node">
<title>ISFP_Unidentified2</title>
<path fill="#e8f8f5" stroke="transparent" d="M116.5,-258C116.5,-258 44.5,-258 44.5,-258 38.5,-258 32.5,-252 32.5,-246 32.5,-246 32.5,-196 32.5,-196 32.5,-190 38.5,-184 44.5,-184 44.5,-184 116.5,-184 116.5,-184 122.5,-184 128.5,-190 128.5,-196 128.5,-196 128.5,-246 128.5,-246 128.5,-252 122.5,-258 116.5,-258"/>
<image xlink:href="/home/drake/Documents/github/ink-and-silence/mine/dossier/MBTI/media/ISFP unidentified-2.png" width="76px" height="46px" preserveAspectRatio="xMinYMin meet" x="42.5" y="-252"/>
<text text-anchor="start" x="77" y="-193.2" font-family="Arial" font-size="11.00" fill="#117a65">?</text>
</g>
<!-- ISFP_Unidentified2&#45;&gt;ISFP -->
<g id="edge12" class="edge">
<title>ISFP_Unidentified2&#45;&gt;ISFP</title>
<path fill="none" stroke="#7f8c8d" d="M128.64,-238.63C171.7,-254.73 235.11,-278.45 278.69,-294.75"/>
<polygon fill="#7f8c8d" stroke="#7f8c8d" points="277.63,-298.09 288.22,-298.31 280.08,-291.53 277.63,-298.09"/>
</g>
<!-- ISFP_Unidentified3 -->
<g id="node17" class="node">
<title>ISFP_Unidentified3</title>
<path fill="#e8f8f5" stroke="transparent" d="M116.5,-166C116.5,-166 44.5,-166 44.5,-166 38.5,-166 32.5,-160 32.5,-154 32.5,-154 32.5,-104 32.5,-104 32.5,-98 38.5,-92 44.5,-92 44.5,-92 116.5,-92 116.5,-92 122.5,-92 128.5,-98 128.5,-104 128.5,-104 128.5,-154 128.5,-154 128.5,-160 122.5,-166 116.5,-166"/>
<image xlink:href="/home/drake/Documents/github/ink-and-silence/mine/dossier/MBTI/media/ISFP unidentified-3.png" width="76px" height="46px" preserveAspectRatio="xMinYMin meet" x="42.5" y="-160"/>
<text text-anchor="start" x="77" y="-101.2" font-family="Arial" font-size="11.00" fill="#117a65">?</text>
</g>
<!-- ISFP_Unidentified3&#45;&gt;ISFP -->
<g id="edge13" class="edge">
<title>ISFP_Unidentified3&#45;&gt;ISFP</title>
<path fill="none" stroke="#7f8c8d" d="M128.69,-155.15C139.45,-161.42 150.73,-168.27 161,-175 210.44,-207.41 223.12,-215.53 268,-254 278.74,-263.2 289.9,-273.93 299.62,-283.69"/>
<polygon fill="#7f8c8d" stroke="#7f8c8d" points="297.23,-286.25 306.74,-290.92 302.22,-281.34 297.23,-286.25"/>
</g>
<!-- ISFP_Unidentified4 -->
<g id="node18" class="node">
<title>ISFP_Unidentified4</title>
<path fill="#e8f8f5" stroke="transparent" d="M116.5,-74C116.5,-74 44.5,-74 44.5,-74 38.5,-74 32.5,-68 32.5,-62 32.5,-62 32.5,-12 32.5,-12 32.5,-6 38.5,0 44.5,0 44.5,0 116.5,0 116.5,0 122.5,0 128.5,-6 128.5,-12 128.5,-12 128.5,-62 128.5,-62 128.5,-68 122.5,-74 116.5,-74"/>
<image xlink:href="/home/drake/Documents/github/ink-and-silence/mine/dossier/MBTI/media/ISFP unidentified-4.png" width="76px" height="46px" preserveAspectRatio="xMinYMin meet" x="42.5" y="-68"/>
<text text-anchor="start" x="77" y="-9.2" font-family="Arial" font-size="11.00" fill="#117a65">?</text>
</g>
<!-- ISFP_Unidentified4&#45;&gt;ISFP -->
<g id="edge14" class="edge">
<title>ISFP_Unidentified4&#45;&gt;ISFP</title>
<path fill="none" stroke="#7f8c8d" d="M128.87,-62.05C139.73,-68.43 151.01,-75.59 161,-83 213.28,-121.77 229.96,-130.18 268,-183 290.09,-213.67 306.96,-253.86 317,-281.39"/>
<polygon fill="#7f8c8d" stroke="#7f8c8d" points="313.73,-282.66 320.38,-290.91 320.33,-280.32 313.73,-282.66"/>
</g>
<!-- Analyst -->
<g id="node19" class="node">
<title>Analyst</title>
<path fill="#e8f8f5" stroke="#a3e4d7" d="M95.5,-1076C95.5,-1076 65.5,-1076 65.5,-1076 59.5,-1076 53.5,-1070 53.5,-1064 53.5,-1064 53.5,-1052 53.5,-1052 53.5,-1046 59.5,-1040 65.5,-1040 65.5,-1040 95.5,-1040 95.5,-1040 101.5,-1040 107.5,-1046 107.5,-1052 107.5,-1052 107.5,-1064 107.5,-1064 107.5,-1070 101.5,-1076 95.5,-1076"/>
<text text-anchor="middle" x="80.5" y="-1055.2" font-family="Arial" font-size="11.00" fill="#117a65">Analyst</text>
</g>
<!-- Analyst&#45;&gt;INTP -->
<g id="edge8" class="edge">
<title>Analyst&#45;&gt;INTP</title>
<path fill="none" stroke="#7f8c8d" d="M107.76,-1054.36C148.67,-1047.24 227.14,-1027.49 268,-977 314.16,-919.97 324.79,-830.75 327.06,-783.27"/>
<polygon fill="#7f8c8d" stroke="#7f8c8d" points="330.56,-783.37 327.44,-773.24 323.57,-783.1 330.56,-783.37"/>
<text text-anchor="middle" x="223.5" y="-1035.8" font-family="Arial" font-size="9.00"> Grounded Logic</text>
</g>
</g>
</svg>
